PathFileType	3	(X/Y/Z)	D:\minhoCalibration\240510\subject4_KPNP\preferred\preferred16.trc
DataRate	CameraRate	NumFrames	NumMarkers	Units	OrigDataRate	OrigDataStartFrame	OrigNumFrames
200.0	200.0	37	10	mm	200.0	466	79	
Frame#	Time	Left_Ankle_Outer1			Left_Ankle_Inner1			Left_Knee_Outer1			Left_Knee_Inner1			Left_Wrist1			Right_Wrist1			Right_Knee_Inner1			Right_Knee_Outer1			Right_Ankle_Inner1			Right_Ankle_Outer1			
		X1	Y1	Z1	X2	Y2	Z2	X3	Y3	Z3	X4	Y4	Z4	X5	Y5	Z5	X6	Y6	Z6	X7	Y7	Z7	X8	Y8	Z8	X9	Y9	Z9	X10	Y10	Z10	
466	2.32	-652.80219	465.71997	1479.1204	-577.15955	409.11932	1434.5422	-736.83905	630.76855	1009.6995	-629.16345	593.87378	997.95728	-613.48267	1050.4684	1186.6436	-333.22354	925.32788	1371.1348	-416.33417	520.84521	1120.951	-346.30643	519.55927	1206.5863	-560.34784	69.111267	1223.0896	-516.5686	75.799782	1257.3777
467	2.325	-659.67279	480.73761	1456.4198	-582.35632	424.48071	1415.2488	-726.1651	645.84064	985.49872	-618.6123	608.24274	977.86426	-605.64984	1058.314	1179.1626	-336.11279	927.52875	1375.264	-415.58728	521.89044	1123.7291	-346.87906	521.68463	1210.6902	-559.86652	70.436302	1222.51	-516.24408	77.295235	1257.515
468	2.33	-667.64673	496.07422	1433.668	-588.16608	439.85046	1396.3049	-713.80035	661.22314	961.8089	-605.80432	624.02441	957.81805	-597.83417	1066.0635	1172.3296	-340.44504	929.37091	1380.6976	-414.84167	523.94031	1125.4307	-347.35071	523.81647	1214.2194	-559.38019	72.357964	1221.8887	-516.10828	79.053535	1257.3907
469	2.335	-676.53918	511.76779	1410.3054	-596.47833	454.74545	1375.8202	-700.73779	677.61371	938.67743	-592.09955	639.70984	938.08771	-589.70862	1073.6478	1166.038	-343.37479	931.52502	1384.921	-413.05225	526.16968	1126.6587	-347.74435	526.11554	1217.2832	-559.51813	75.052521	1221.4291	-516.30774	80.945747	1256.9353
470	2.34	-685.74573	527.14722	1386.7932	-604.86475	470.26202	1356.3824	-686.1969	694.62628	916.31934	-579.72168	655.16705	921.40295	-581.8764	1081.3042	1160.4673	-347.0882	933.28644	1388.6288	-412.21365	527.6499	1128.2114	-347.40686	528.60754	1220.245	-559.96075	77.324539	1219.7839	-517.2467	83.049667	1256.5704
471	2.345	-696.06683	543.31555	1362.2655	-614.6438	486.41876	1336.0577	-671.01001	712.47961	895.14349	-563.67694	671.72144	903.45892	-573.7489	1088.5918	1155.4756	-351.31528	935.38635	1392.5656	-409.66541	529.78894	1128.3325	-347.63547	530.70892	1221.9777	-560.69928	79.791901	1218.2665	-518.01074	85.193481	1254.8914
472	2.35	-707.07202	559.59949	1337.4283	-624.04907	502.46597	1316.364	-654.21796	730.90674	874.9389	-547.96429	688.15375	887.57745	-565.70331	1095.6989	1150.8904	-355.8725	937.03528	1397.2189	-408.12308	532.3233	1129.4181	-347.57187	533.02502	1223.84	-560.91058	82.462799	1215.4366	-519.37695	87.440117	1253.194
473	2.355	-718.29999	576.37915	1311.9742	-634.53918	518.43506	1295.6498	-635.42297	749.35181	856.26288	-531.28705	704.75165	873.16913	-557.50824	1102.3944	1146.5946	-360.8158	938.29199	1401.2748	-404.93845	533.90588	1128.3639	-347.18735	535.1853	1225.5206	-561.80579	85.239326	1212.3948	-521.15961	89.9077	1251.2317
474	2.36	-729.65253	593.54523	1285.8702	-646.85272	534.17706	1274.1998	-616.05499	768.37042	838.77429	-513.62793	721.86786	860.02893	-549.67883	1109.3696	1143.0995	-366.0567	939.31799	1405.0841	-402.18787	536.20557	1128.5482	-346.91061	537.27911	1227.0433	-562.6955	88.020096	1208.8655	-523.59833	92.731117	1249.4978
475	2.365	-740.65637	611.04016	1258.6777	-658.71594	550.04565	1252.1495	-595.79474	787.8996	822.63983	-495.75421	738.56677	848.95905	-542.07727	1116.0781	1140.2705	-371.81772	940.13373	1408.7123	-398.70102	538.11261	1127.731	-346.19455	539.15283	1228.6987	-564.16602	91.332245	1205.0021	-525.68994	95.402664	1246.3643
476	2.37	-751.61548	629.12262	1230.783	-671.06689	565.79645	1228.6244	-574.34058	807.40228	808.36548	-478.21497	753.72766	839.19061	-535.09589	1122.5125	1138.1975	-377.91196	940.68579	1412.178	-394.73975	540.21777	1127.0421	-345.95023	540.97296	1229.7495	-565.25714	94.318192	1200.7976	-528.1535	98.343643	1243.4574
477	2.375	-762.01843	647.58026	1201.5171	-683.63245	581.53729	1203.7816	-552.45093	826.82898	796.05292	-460.12091	769.16925	831.01178	-527.32892	1129.1301	1135.6981	-384.43604	940.63538	1414.4833	-390.42972	541.87244	1126.2238	-345.37433	542.65002	1230.7928	-565.95422	97.684784	1196.5266	-530.77203	101.40405	1240.4487
478	2.38	-772.22394	666.85919	1171.5128	-696.54669	597.12842	1177.1409	-529.87146	846.24335	784.79846	-442.37543	783.88287	824.30212	-521.01685	1134.845	1134.7766	-391.79437	940.42383	1416.2153	-387.19653	542.88025	1127.4681	-344.9035	544.40106	1231.7031	-567.71478	101.478	1191.6311	-532.92419	104.4082	1236.8883
479	2.385	-781.08575	686.07617	1140.2354	-709.4071	612.83594	1148.8181	-507.48242	865.41614	776.01239	-424.88882	798.1496	819.07556	-514.51282	1140.6661	1133.6151	-399.40491	940.08484	1418.1345	-380.51315	545.77014	1126.3694	-344.16739	546.22687	1233.1597	-567.63239	104.39147	1186.6396	-534.9104	107.27874	1233.0853
480	2.39	-789.55377	705.70081	1108.1973	-721.65393	628.64642	1118.7111	-484.94736	884.03302	769.24908	-407.94388	811.73383	814.98944	-507.63126	1146.7784	1131.981	-407.47351	939.54523	1419.6743	-375.12787	546.98816	1126.1359	-343.96591	547.82751	1233.7319	-567.75574	107.1949	1180.8672	-536.71436	110.02345	1229.1071
481	2.395	-796.69751	725.55969	1074.1949	-734.0116	644.87897	1086.1244	-462.25046	902.17218	764.84833	-391.60635	824.70392	812.03406	-502.15256	1151.6908	1132.0612	-415.65375	938.88647	1421.2214	-370.00204	548.3996	1126.6143	-343.68326	549.28687	1234.5808	-568.23859	109.94141	1176.3568	-538.13684	112.56213	1224.9535
482	2.4	-803.27551	745.81494	1038.9907	-745.43103	661.70325	1050.5822	-439.75119	919.00055	761.92151	-376.13739	836.7547	809.97809	-496.66376	1156.5994	1131.7638	-424.30173	937.69781	1420.9358	-365.12378	549.58044	1127.4568	-343.58188	550.80054	1235.6289	-568.01776	112.48347	1171.4315	-539.25629	114.80843	1220.947
483	2.405	-808.78265	766.41815	1002.0662	-755.89551	678.88214	1013.1836	-418.26089	935.2984	760.84412	-361.75098	848.12274	808.59845	-490.30502	1161.9755	1130.8669	-432.96704	936.64685	1421.3776	-360.30939	550.60468	1128.3973	-344.01144	552.20166	1236.6498	-567.70312	114.3342	1166.4994	-540.2489	116.86989	1217.3464
484	2.41	-812.94135	787.07935	963.26074	-764.6463	697.02301	974.13629	-397.3779	950.50244	761.15466	-348.41113	858.80365	807.82074	-485.47406	1166.1907	1131.252	-441.75592	935.30878	1420.4913	-356.07556	551.46002	1129.5345	-344.62262	553.53137	1237.8932	-567.28534	116.63631	1162.5957	-541.18701	118.74783	1214.1102
485	2.415	-815.435	808.21289	922.54004	-771.50787	715.83789	932.82977	-377.25363	964.24969	762.89795	-336.12766	868.9328	807.56549	-480.82422	1170.2566	1131.225	-450.43695	933.9491	1418.9823	-352.75531	552.06158	1130.7823	-345.98892	554.80353	1239.13	-566.87866	118.45244	1159.286	-542.02502	120.43089	1211.4025
486	2.42	-816.01361	829.71539	879.9165	-776.17731	735.49506	889.23669	-358.76669	976.659	765.64716	-325.17795	878.26868	807.58838	-476.30563	1174.1672	1131.389	-459.11795	932.68359	1416.8781	-349.8208	552.72485	1131.8064	-347.91968	555.85828	1240.1754	-566.49664	120.04522	1156.9286	-542.71796	121.9546	1208.9969
487	2.425	-813.83545	851.82751	835.35553	-778.17883	755.96466	843.47552	-341.85263	987.72913	769.25165	-315.57834	886.90283	807.78735	-472.16251	1177.9915	1132.0524	-467.51273	931.43964	1413.9957	-347.39493	553.42719	1132.2881	-350.37958	556.88275	1241.125	-566.4986	121.13381	1154.3511	-543.32599	123.10192	1207.1576
488	2.43	-809.21667	874.84534	789.09735	-776.81171	777.24084	796.88507	-326.73218	997.48389	773.56592	-307.40643	895.03339	808.04462	-469.16049	1181.4215	1132.7717	-475.68658	930.36688	1410.6277	-346.60889	553.87463	1132.606	-353.5199	557.54547	1241.2083	-566.40143	122.12975	1153.1161	-543.8244	124.01076	1205.8302
489	2.435	-801.57568	898.08246	741.87793	-772.30627	799.05859	748.06091	-313.7164	1005.6464	778.36542	-300.60999	902.49701	808.13245	-466.02576	1184.9933	1133.4393	-483.52121	929.21375	1406.6094	-346.75986	554.18481	1132.2594	-356.77328	558.47485	1241.6781	-565.80597	122.20609	1151.5609	-544.14886	124.6209	1204.8712
490	2.44	-790.30762	921.9212	693.32861	-763.85944	822.83929	697.08899	-302.53165	1013.3428	783.12427	-295.31525	909.57593	807.8468	-463.43909	1188.4762	1134.119	-490.97852	928.16742	1402.1072	-346.91647	555.14746	1130.5659	-360.34061	559.23163	1241.2334	-566.08081	122.52511	1151.2367	-544.40009	124.97027	1204.3473
491	2.445	-774.80713	946.0274	643.758	-750.90381	845.15546	645.24701	-293.7081	1019.8636	787.56549	-291.25919	916.31812	806.7655	-461.19159	1192.2054	1134.8553	-497.81479	927.04608	1397.282	-349.33612	555.55054	1129.452	-363.8638	559.96783	1240.078	-566.25092	122.4243	1150.9979	-544.54675	125.02853	1204.1771
492	2.45	-755.55115	970.6012	594.65601	-733.62427	868.12775	593.85767	-287.27802	1025.5916	791.51764	-288.52371	922.89789	805.16754	-459.1228	1196.1558	1135.5564	-503.93051	926.16718	1392.1985	-351.63202	556.57697	1127.7194	-367.22653	560.72595	1238.4768	-566.30182	122.36414	1151.2156	-544.66315	124.9836	1204.1893
493	2.455	-732.26709	995.57147	546.54211	-715.2749	893.75464	549.27142	-283.2803	1030.5043	794.52509	-287.21149	929.32727	802.729	-457.55392	1199.6046	1136.1782	-509.30893	925.4425	1387.1129	-354.3002	556.99017	1124.7631	-370.1152	561.50684	1236.2809	-566.82715	121.78836	1151.2156	-544.77942	124.85006	1204.2961
494	2.46	-704.01843	1020.141	499.0065	-686.21136	915.75146	495.26117	-282.27216	1034.1307	796.83252	-287.36179	935.58374	799.63934	-456.49136	1202.8771	1137.2012	-513.79004	924.78229	1381.4722	-356.4715	557.72986	1121.1631	-372.4212	562.34375	1233.4681	-567.14911	121.50094	1151.5015	-544.92798	124.59607	1204.4128
495	2.465	-671.62897	1044.7587	453.59793	-656.66058	940.01221	448.55414	-283.4827	1037.1934	798.22247	-288.99881	941.80829	795.74359	-455.61313	1205.9471	1138.1632	-517.27002	924.15143	1376.6552	-359.6991	558.28705	1117.5717	-374.11243	563.09198	1230.0958	-567.61151	120.64765	1151.3151	-545.04828	124.37114	1204.3795
496	2.47	-635.02985	1068.7054	411.00375	-624.67834	964.92255	406.46036	-286.57739	1039.8304	798.36774	-292.54291	947.76776	790.97784	-455.27679	1208.5367	1139.0121	-519.89423	923.73071	1373.3685	-362.94901	558.83185	1113.5751	-375.10483	563.69678	1226.0331	-568.03418	120.04213	1151.3656	-545.32477	124.14977	1204.2771
497	2.475	-594.48016	1091.532	372.1958	-586.44989	989.4386	366.34851	-291.17984	1043.2136	797.35321	-298.03552	953.5578	785.18817	-455.24496	1210.7965	1139.7614	-521.22211	922.78448	1370.7159	-366.10709	559.31732	1109.1188	-375.7005	564.27264	1221.6212	-569.02289	119.6775	1151.3243	-545.54742	124.01258	1203.8838
498	2.48	-549.8064	1112.6759	337.63824	-543.74963	1010.2377	330.47525	-297.1683	1046.986	795.11304	-305.61502	959.17328	778.46594	-455.48828	1212.7759	1140.3516	-522.25165	922.09467	1368.882	-369.48605	559.54749	1104.4663	-375.90503	564.77869	1216.9189	-569.61871	119.46556	1151.0314	-545.92719	123.90688	1203.2206
499	2.485	-502.90866	1132.072	309.31091	-497.88159	1029.5945	300.11554	-304.30057	1050.577	791.72528	-315.20764	964.849	771.05487	-456.18274	1214.3248	1140.7013	-522.65906	921.63605	1367.1267	-372.48309	559.70129	1099.4987	-375.91782	565.25934	1211.9408	-571.19165	118.94154	1150.0566	-546.60437	123.90325	1202.2057
500	2.49	-453.32928	1149.0892	288.39694	-454.4346	1047.2299	278.75513	-312.43094	1054.4724	787.01837	-326.40775	970.57971	763.14886	-457.27225	1215.6837	1140.5994	-522.29816	921.37872	1365.1145	-375.49146	559.83698	1094.4961	-375.7952	565.61768	1206.866	-571.71472	118.63361	1148.5608	-547.48541	124.03529	1200.9292
501	2.495	-413.22931	1163.6418	279.98111	-433.29498	1063.1517	272.09476	-320.47314	1059.7734	781.06024	-338.99533	976.66492	755.04382	-459.07733	1216.976	1140.0712	-521.30182	921.36493	1363.2643	-378.04718	559.7984	1089.3733	-375.57922	565.87659	1201.6597	-572.79797	118.44136	1146.8446	-548.4671	124.25587	1199.2894
502	2.5	-392.11023	1177.448	277.79953	-426.75208	1079.5134	268.35883	-325.25421	1069.4351	774.72473	-351.61484	981.11823	747.70856	-461.14209	1218.3628	1138.843	-519.66754	921.46063	1360.5624	-380.51407	559.75891	1084.4583	-375.12036	566.18451	1196.8698	-573.72693	118.32317	1145.0289	-549.67981	124.53645	1197.3461
